<svg xmlns="http://www.w3.org/2000/svg" viewBox="1175 2615 32.4 32.4">
  <defs>
    <style>
      .cls-1 {
        fill: #1a237e;
      }
    </style>
  </defs>
  <path id="Path_61" data-name="Path 61" class="cls-1" d="M773.1,0a16.2,16.2,0,0,0,.1,32.4,16.046,16.046,0,0,0,9.1-2.8l-2.6-3.8a11.509,11.509,0,1,1,5-9.5v1.2c0,1-.2,2.6-1.7,2.6h-.6a2.037,2.037,0,0,1-1.4-1.3V16.3h0a7.8,7.8,0,1,0-7.8,7.8,7.6,7.6,0,0,0,4.8-1.7,6.4,6.4,0,0,0,4.5,2.3h.6c3.7,0,6.3-3,6.3-7.3V16.2A16.346,16.346,0,0,0,773.1,0Zm0,19.4a3.222,3.222,0,0,1-3.2-3.2,3.159,3.159,0,0,1,3.2-3.2,3.222,3.222,0,0,1,3.2,3.2A3.158,3.158,0,0,1,773.1,19.4Z" transform="translate(418 2615)"/>
</svg>
