<svg id="masc_logo" data-name="masc logo" xmlns="http://www.w3.org/2000/svg" viewBox="342 35 309.9 58.8">
  <defs>
    <style>
      .cls-1 {
        fill: #1a237e;
      }
    </style>
  </defs>
  <g id="Group_1" data-name="Group 1" transform="translate(342 35)">
    <path id="Path_1" data-name="Path 1" class="cls-1" d="M11.2,37.1c0,6.8,0,7.2,4.9,7.8V47H0V44.9c4.9-.6,4.9-1,4.9-7.8V21.7c-.2-3.8-.3-5.2-4.7-5.2V14.8l11-4.2v7.1c2.8-3.7,7.2-6.6,12-6.6,4.1,0,7.2,2.9,8.6,6.6C35.2,14.2,39,11,44.1,11c3.1,0,6,1.1,7.7,4,1.6,2.7,1.5,6.7,1.5,9.9V37.1c0,6.8,0,7.2,4.8,7.8V47h-16V44.9c4.9-.6,4.9-1,4.9-7.8V24.2c0-3.9.1-9.4-5.3-9.4-3.7,0-7.1,2.7-9.4,5.3V37.2c0,6.8,0,7.2,4.9,7.8v2H21.1V44.9c4.8-.6,4.8-1,4.8-7.8V24.2c0-3.9-.1-9.4-5.5-9.4-3.7,0-7.1,2.7-9.2,5.3v17Z"/>
    <path id="Path_2" data-name="Path 2" class="cls-1" d="M79.6,21c0-3.5-.7-7.6-5-7.6-3.6,0-5.1,2.4-5.9,5.5-.6,2.2-1.6,3.6-4.2,3.6a3.1,3.1,0,0,1-3.4-3.2c0-6,8.4-8.3,13.1-8.3,3,0,6.7.5,9.1,2.5,2.6,2.2,2.6,5.2,2.6,8.2V38.1c0,1.7,0,4.9,2.2,4.9,1.2,0,2.1-.9,3-1.8l.9,1.5c-1.8,2.7-4,5-7.3,5-3,0-4.6-2.3-4.9-5-3.3,2.7-7.2,5-11.5,5-5,0-8.5-3.5-8.5-8.6,0-9.6,12.5-12,19.9-13.5V21Zm0,7.1c-5.1.9-13,4.3-13,10.3a5.2,5.2,0,0,0,5.3,5.5c2.7,0,6-2.1,7.8-4.1V28.1Z"/>
    <path id="Path_3" data-name="Path 3" class="cls-1" d="M118.9,22.2l-1.7.9c-3.5-4.5-7.8-9.8-13.7-9.8-2.8,0-5.7,1.9-5.7,4.9,0,8.8,22.6,5.5,22.6,18.6,0,6.2-6,10.9-11.7,10.9a15.812,15.812,0,0,1-4.8-1,8.165,8.165,0,0,0-2.7-.6A6.254,6.254,0,0,0,97,47.8L92.5,35.6l1.6-.8c2.7,4.5,9.5,10.7,14.9,10.7a6.13,6.13,0,0,0,6.3-5.9c0-9.3-22.4-5.3-22.4-18.3,0-6.1,5.6-10.2,11.3-10.2,2.6,0,5.1,1.2,7.1,1.2a3.728,3.728,0,0,0,3.2-1.7Z"/>
    <path id="Path_4" data-name="Path 4" class="cls-1" d="M153.4,38.4c-3.5,5.3-8.6,9.4-15.2,9.4-9.4,0-16.1-8.6-16.1-17.5,0-10.7,7.3-19.3,18.4-19.3,4.1,0,11.8,2.5,11.8,7.6a3.72,3.72,0,0,1-3.9,3.6c-5.3,0-3.2-8.8-10.2-8.8-7.4,0-8.9,9.8-8.9,15.3,0,6.8,3.8,15.3,11.8,15.3,4.9,0,8.1-3.2,11.2-6.6Z"/>
  </g>
  <rect id="Rectangle_2" data-name="Rectangle 2" class="cls-1" width="150.3" height="4" transform="translate(343.4 35)"/>
  <rect id="Rectangle_3" data-name="Rectangle 3" class="cls-1" width="150.3" height="4" transform="translate(343.4 89.8)"/>
  <g id="Group_2" data-name="Group 2" transform="translate(342 35)">
    <path id="Path_5" data-name="Path 5" class="cls-1" d="M167.8,9l2.4-.1.3,1.8a5.954,5.954,0,0,1,1.3-1.4,2.41,2.41,0,0,1,1.5-.4,2.116,2.116,0,0,1,1.4.4,2.747,2.747,0,0,1,.9,1.5,4.422,4.422,0,0,1,1.3-1.4,3.022,3.022,0,0,1,1.6-.5,2.06,2.06,0,0,1,1.7.7,3.334,3.334,0,0,1,.7,2.3V16a.764.764,0,0,0,.2.5,1.445,1.445,0,0,0,.7.2h.4v.7H178v-.7h.4a.956.956,0,0,0,.7-.2.764.764,0,0,0,.2-.5V11.9a1.955,1.955,0,0,0-.4-1.4,1.656,1.656,0,0,0-1.2-.5,1.689,1.689,0,0,0-1,.3,2.9,2.9,0,0,0-1.1,2.1v3.5a.764.764,0,0,0,.2.5.845.845,0,0,0,.6.2h.6v.7h-4.2v-.7h.5a1.445,1.445,0,0,0,.7-.2.4.4,0,0,0,.2-.4V12.2a2.5,2.5,0,0,0-.4-1.7,1.606,1.606,0,0,0-1.1-.5,1.678,1.678,0,0,0-1.4.6,3.139,3.139,0,0,0-.7,2.1V16a.588.588,0,0,0,.2.5,1.445,1.445,0,0,0,.7.2h.4v.7h-4.1v-.7h.6a.694.694,0,0,0,.7-.6V10.7a1.445,1.445,0,0,0-.2-.7c-.1-.2-.5-.2-.9-.3V9Z"/>
    <path id="Path_6" data-name="Path 6" class="cls-1" d="M191.6,16.3l.3.5a2.1,2.1,0,0,1-1.4.7,1.689,1.689,0,0,1-1-.3,2.326,2.326,0,0,1-.7-1.1,4.89,4.89,0,0,1-1.5,1.2,3.653,3.653,0,0,1-1.5.3,3.312,3.312,0,0,1-1.9-.5,1.75,1.75,0,0,1-.7-1.4,2.308,2.308,0,0,1,1.5-2.1,12.032,12.032,0,0,1,4-1.1V11a1.606,1.606,0,0,0-.5-1.1,1.978,1.978,0,0,0-1.4-.5,2.768,2.768,0,0,0-1.3.3c-.3.2-.4.3-.4.5,0,.1.1.2.2.4a.864.864,0,0,1,.3.6.6.6,0,0,1-.3.6,1.493,1.493,0,0,1-.7.3.908.908,0,0,1-.7-.3,1.136,1.136,0,0,1-.3-.8,1.936,1.936,0,0,1,1-1.6,4.209,4.209,0,0,1,2.6-.7,3.4,3.4,0,0,1,2.2.6,1.943,1.943,0,0,1,.8,1.6v4.5a2,2,0,0,0,.2.9.55.55,0,0,0,.5.3A1.329,1.329,0,0,0,191.6,16.3Zm-2.9-3.4a7.078,7.078,0,0,0-3.2,1,1.683,1.683,0,0,0-.7,1.5,1.366,1.366,0,0,0,.4,1.1,1.222,1.222,0,0,0,.9.4,2.5,2.5,0,0,0,1.8-.8,2.792,2.792,0,0,0,.8-2Z"/>
    <path id="Path_7" data-name="Path 7" class="cls-1" d="M193.4,14.1a5.053,5.053,0,0,0,1.3,2.1,2.716,2.716,0,0,0,1.7.6,2.41,2.41,0,0,0,1.5-.4,1.173,1.173,0,0,0,.5-1.1,1.072,1.072,0,0,0-.2-.6,1,1,0,0,0-.5-.4,14.679,14.679,0,0,0-1.7-.4,8.536,8.536,0,0,1-1.9-.6,2.047,2.047,0,0,1-.8-.8,2.016,2.016,0,0,1-.3-1.1,2.271,2.271,0,0,1,.6-1.6,2.792,2.792,0,0,1,2.2-.9,3.057,3.057,0,0,1,2,.7l.6-.6h.4l.2,2.9h-.6a5.012,5.012,0,0,0-1-1.8,2.2,2.2,0,0,0-1.6-.5,1.7,1.7,0,0,0-1.3.4,1.389,1.389,0,0,0-.5,1,1.222,1.222,0,0,0,.4.9,6.293,6.293,0,0,0,1.7.6c1,.2,1.6.3,1.9.4a1.879,1.879,0,0,1,1.1.8,2.01,2.01,0,0,1,.4,1.3,2.271,2.271,0,0,1-.9,1.8,3.3,3.3,0,0,1-2.2.8,4.006,4.006,0,0,1-2.3-.8l-.6.7H193l-.2-3.3h.6Z"/>
    <path id="Path_8" data-name="Path 8" class="cls-1" d="M201.3,14.1a5.053,5.053,0,0,0,1.3,2.1,2.716,2.716,0,0,0,1.7.6,2.41,2.41,0,0,0,1.5-.4,1.173,1.173,0,0,0,.5-1.1,1.072,1.072,0,0,0-.2-.6,1,1,0,0,0-.5-.4,14.679,14.679,0,0,0-1.7-.4,8.536,8.536,0,0,1-1.9-.6,2.047,2.047,0,0,1-.8-.8,2.016,2.016,0,0,1-.3-1.1,2.271,2.271,0,0,1,.6-1.6,2.792,2.792,0,0,1,2.2-.9,3.057,3.057,0,0,1,2,.7l.6-.6h.4l.2,2.9h-.6a5.012,5.012,0,0,0-1-1.8,2.2,2.2,0,0,0-1.6-.5,1.7,1.7,0,0,0-1.3.4,1.389,1.389,0,0,0-.5,1,1.222,1.222,0,0,0,.4.9,6.293,6.293,0,0,0,1.7.6c1,.2,1.6.3,1.9.4a1.879,1.879,0,0,1,1.1.8,2.01,2.01,0,0,1,.4,1.3,2.271,2.271,0,0,1-.9,1.8,3.3,3.3,0,0,1-2.2.8,4.006,4.006,0,0,1-2.3-.8l-.6.7h-.5l-.2-3.3h.6Z"/>
    <path id="Path_9" data-name="Path 9" class="cls-1" d="M216.9,16.3l.3.5a2.1,2.1,0,0,1-1.4.7,1.689,1.689,0,0,1-1-.3,2.326,2.326,0,0,1-.7-1.1,4.89,4.89,0,0,1-1.5,1.2,3.653,3.653,0,0,1-1.5.3,3.312,3.312,0,0,1-1.9-.5,1.75,1.75,0,0,1-.7-1.4,2.308,2.308,0,0,1,1.5-2.1,12.032,12.032,0,0,1,4-1.1V11a1.606,1.606,0,0,0-.5-1.1,1.978,1.978,0,0,0-1.4-.5,2.768,2.768,0,0,0-1.3.3c-.3.2-.4.3-.4.5,0,.1.1.2.2.4a.864.864,0,0,1,.3.6.6.6,0,0,1-.3.6,1.493,1.493,0,0,1-.7.3.908.908,0,0,1-.7-.3,1.136,1.136,0,0,1-.3-.8,1.936,1.936,0,0,1,1-1.6,4.209,4.209,0,0,1,2.6-.7,3.4,3.4,0,0,1,2.2.6,1.943,1.943,0,0,1,.8,1.6v4.5a2,2,0,0,0,.2.9.55.55,0,0,0,.5.3A1.08,1.08,0,0,0,216.9,16.3ZM214,12.9a7.078,7.078,0,0,0-3.2,1,1.683,1.683,0,0,0-.7,1.5,1.366,1.366,0,0,0,.4,1.1,1.222,1.222,0,0,0,.9.4,2.5,2.5,0,0,0,1.8-.8,2.792,2.792,0,0,0,.8-2Z"/>
    <path id="Path_10" data-name="Path 10" class="cls-1" d="M224.1,14.8l.6.2a2.969,2.969,0,0,1-3,2.5,3.928,3.928,0,0,1-2.8-1.1,4.248,4.248,0,0,1-1.1-3A4.547,4.547,0,0,1,219,10a3.784,3.784,0,0,1,2.8-1.2,2.724,2.724,0,0,1,2,.7,2.057,2.057,0,0,1,.8,1.5,1.136,1.136,0,0,1-.3.8,1,1,0,0,1-1.7-.7.908.908,0,0,1,.3-.7.367.367,0,0,0,.1-.3c0-.2-.1-.3-.3-.5s-.5-.2-.9-.2a1.816,1.816,0,0,0-1.6.8,5.571,5.571,0,0,0-.8,3,4.148,4.148,0,0,0,.7,2.7,2.271,2.271,0,0,0,1.8.9A2.728,2.728,0,0,0,224.1,14.8Z"/>
    <path id="Path_11" data-name="Path 11" class="cls-1" d="M225.1,4.2l3.1-.1v6.3a4.269,4.269,0,0,1,1.4-1.3,2.934,2.934,0,0,1,1.6-.4,2.3,2.3,0,0,1,1.4.4,2.089,2.089,0,0,1,.8,1,4.844,4.844,0,0,1,.3,1.8v3.9a.588.588,0,0,0,.2.5.845.845,0,0,0,.6.2h.7v.7h-4.4v-.7h.5a1.549,1.549,0,0,0,.8-.2c.2-.1.2-.3.2-.5V12a2.544,2.544,0,0,0-.5-1.6,1.612,1.612,0,0,0-1.3-.6,2.016,2.016,0,0,0-1.1.3,3,3,0,0,0-.9,1,2.5,2.5,0,0,0-.4,1.4v3.3a.707.707,0,0,0,.8.8h.7v.7h-4.4v-.7h.5a1.165,1.165,0,0,0,.7-.2.845.845,0,0,0,.2-.6V6a.984.984,0,0,0-.3-.8,1.135,1.135,0,0,0-.8-.3h-.6V4.2Z"/>
    <path id="Path_12" data-name="Path 12" class="cls-1" d="M238.7,8.9v5.5a2.07,2.07,0,0,0,.5,1.5,1.536,1.536,0,0,0,1.3.5,2.289,2.289,0,0,0,1.7-.8,2.724,2.724,0,0,0,.7-2V10.5a.908.908,0,0,0-.3-.7c-.2-.2-.6-.2-1.2-.3V9l2.9-.1v6.8a1.025,1.025,0,0,0,1,1h.5v.6l-2.8.1-.2-1.6a5.8,5.8,0,0,1-1.5,1.3,2.822,2.822,0,0,1-1.5.4,2.64,2.64,0,0,1-1.9-.7,3.394,3.394,0,0,1-.8-2.5V10.7a.67.67,0,0,0-.4-.7,2.332,2.332,0,0,0-1.1-.2V9Z"/>
    <path id="Path_13" data-name="Path 13" class="cls-1" d="M247.4,14.1a5.053,5.053,0,0,0,1.3,2.1,2.716,2.716,0,0,0,1.7.6,2.41,2.41,0,0,0,1.5-.4,1.173,1.173,0,0,0,.5-1.1,1.072,1.072,0,0,0-.2-.6,1,1,0,0,0-.5-.4,14.679,14.679,0,0,0-1.7-.4,8.536,8.536,0,0,1-1.9-.6,2.047,2.047,0,0,1-.8-.8,2.016,2.016,0,0,1-.3-1.1,2.271,2.271,0,0,1,.6-1.6,2.792,2.792,0,0,1,2.2-.9,3.057,3.057,0,0,1,2,.7l.6-.6h.4l.2,2.9h-.6a5.012,5.012,0,0,0-1-1.8,2.2,2.2,0,0,0-1.6-.5,1.7,1.7,0,0,0-1.3.4,1.389,1.389,0,0,0-.5,1,1.222,1.222,0,0,0,.4.9,6.293,6.293,0,0,0,1.7.6c1,.2,1.6.3,1.9.4a1.879,1.879,0,0,1,1.1.8,2.01,2.01,0,0,1,.4,1.3,2.271,2.271,0,0,1-.9,1.8,3.3,3.3,0,0,1-2.2.8,4.006,4.006,0,0,1-2.3-.8l-.6.7H247l-.2-3.3h.6Z"/>
    <path id="Path_14" data-name="Path 14" class="cls-1" d="M262,13.2h-5.9a4.607,4.607,0,0,0,.7,2.7,2.323,2.323,0,0,0,1.9.9,3.278,3.278,0,0,0,2.8-2l.6.2a4.017,4.017,0,0,1-3.7,2.5,3.784,3.784,0,0,1-2.8-1.2,4.08,4.08,0,0,1-1.1-3.1,4.771,4.771,0,0,1,1.1-3.2,3.571,3.571,0,0,1,2.7-1.2,3.7,3.7,0,0,1,2.1.6,3.523,3.523,0,0,1,1.3,1.8A5.618,5.618,0,0,1,262,13.2Zm-5.9-.6h3.6a.764.764,0,0,0,.5-.2,1.165,1.165,0,0,0,.2-.7,2.271,2.271,0,0,0-.6-1.6,2.1,2.1,0,0,0-1.4-.7,2.254,2.254,0,0,0-1.6.8A3.286,3.286,0,0,0,256.1,12.6Z"/>
    <path id="Path_15" data-name="Path 15" class="cls-1" d="M265,5.7h.6V9h2.7v.8h-2.7v5.3a1.8,1.8,0,0,0,.3,1.1.909.909,0,0,0,.8.4,1.217,1.217,0,0,0,1-.6,3.87,3.87,0,0,0,.5-1.8h.6a3.808,3.808,0,0,1-.7,2.4,2.342,2.342,0,0,1-1.8.8,2.111,2.111,0,0,1-1.6-.6,2.035,2.035,0,0,1-.6-1.5V9.8h-1.4V9.2a2.443,2.443,0,0,0,1.5-.8A4.551,4.551,0,0,0,265,5.7Z"/>
    <path id="Path_16" data-name="Path 16" class="cls-1" d="M271.6,5.7h.6V9h2.7v.8h-2.7v5.3a1.8,1.8,0,0,0,.3,1.1.909.909,0,0,0,.8.4,1.217,1.217,0,0,0,1-.6,3.87,3.87,0,0,0,.5-1.8h.6a3.808,3.808,0,0,1-.7,2.4,2.342,2.342,0,0,1-1.8.8,2.111,2.111,0,0,1-1.6-.6,2.035,2.035,0,0,1-.6-1.5V9.8h-1.4V9.2a2.443,2.443,0,0,0,1.5-.8A6.622,6.622,0,0,0,271.6,5.7Z"/>
    <path id="Path_17" data-name="Path 17" class="cls-1" d="M276.9,14.1a5.053,5.053,0,0,0,1.3,2.1,2.716,2.716,0,0,0,1.7.6,2.41,2.41,0,0,0,1.5-.4,1.173,1.173,0,0,0,.5-1.1,1.072,1.072,0,0,0-.2-.6,1,1,0,0,0-.5-.4,14.679,14.679,0,0,0-1.7-.4,8.536,8.536,0,0,1-1.9-.6,2.047,2.047,0,0,1-.8-.8,2.016,2.016,0,0,1-.3-1.1,2.271,2.271,0,0,1,.6-1.6,2.792,2.792,0,0,1,2.2-.9,3.057,3.057,0,0,1,2,.7l.6-.6h.4l.2,2.9h-.6a5.011,5.011,0,0,0-1-1.8,2.2,2.2,0,0,0-1.6-.5,1.7,1.7,0,0,0-1.3.4,1.389,1.389,0,0,0-.5,1,1.222,1.222,0,0,0,.4.9,6.293,6.293,0,0,0,1.7.6c1,.2,1.6.3,1.9.4a1.879,1.879,0,0,1,1.1.8A2.01,2.01,0,0,1,283,15a2.271,2.271,0,0,1-.9,1.8,3.3,3.3,0,0,1-2.2.8,4.006,4.006,0,0,1-2.3-.8l-.6.7h-.5l-.2-3.3h.6Z"/>
    <path id="Path_18" data-name="Path 18" class="cls-1" d="M176,33.3l.3.5a2.1,2.1,0,0,1-1.4.7,1.689,1.689,0,0,1-1-.3,2.326,2.326,0,0,1-.7-1.1,4.89,4.89,0,0,1-1.5,1.2,3.653,3.653,0,0,1-1.5.3,3.312,3.312,0,0,1-1.9-.5,1.75,1.75,0,0,1-.7-1.4,2.308,2.308,0,0,1,1.5-2.1,12.032,12.032,0,0,1,4-1.1V28a1.606,1.606,0,0,0-.5-1.1,1.978,1.978,0,0,0-1.4-.5,2.768,2.768,0,0,0-1.3.3c-.3.2-.4.3-.4.5,0,.1.1.2.2.4a.864.864,0,0,1,.3.6.6.6,0,0,1-.3.6,1.493,1.493,0,0,1-.7.3.908.908,0,0,1-.7-.3,1.136,1.136,0,0,1-.3-.8,1.936,1.936,0,0,1,1-1.6,4.209,4.209,0,0,1,2.6-.7,3.4,3.4,0,0,1,2.2.6,1.943,1.943,0,0,1,.8,1.6v4.5a2,2,0,0,0,.2.9.55.55,0,0,0,.5.3A1.08,1.08,0,0,0,176,33.3Zm-2.8-3.4a7.078,7.078,0,0,0-3.2,1,1.683,1.683,0,0,0-.7,1.5,1.366,1.366,0,0,0,.4,1.1,1.222,1.222,0,0,0,.9.4,2.5,2.5,0,0,0,1.8-.8,2.792,2.792,0,0,0,.8-2Z"/>
    <path id="Path_19" data-name="Path 19" class="cls-1" d="M177.9,31.1a5.053,5.053,0,0,0,1.3,2.1,2.716,2.716,0,0,0,1.7.6,2.41,2.41,0,0,0,1.5-.4,1.173,1.173,0,0,0,.5-1.1,1.072,1.072,0,0,0-.2-.6,1,1,0,0,0-.5-.4,14.679,14.679,0,0,0-1.7-.4,8.536,8.536,0,0,1-1.9-.6,2.047,2.047,0,0,1-.8-.8,2.016,2.016,0,0,1-.3-1.1,2.271,2.271,0,0,1,.6-1.6,2.792,2.792,0,0,1,2.2-.9,3.057,3.057,0,0,1,2,.7l.6-.6h.4l.2,2.9h-.6a5.012,5.012,0,0,0-1-1.8,2.2,2.2,0,0,0-1.6-.5,1.7,1.7,0,0,0-1.3.4,1.389,1.389,0,0,0-.5,1,1.222,1.222,0,0,0,.4.9,6.293,6.293,0,0,0,1.7.6c1,.2,1.6.3,1.9.4a1.879,1.879,0,0,1,1.1.8A2.01,2.01,0,0,1,184,32a2.271,2.271,0,0,1-.9,1.8,3.3,3.3,0,0,1-2.2.8,4.006,4.006,0,0,1-2.3-.8l-.6.7h-.5l-.2-3.3h.6Z"/>
    <path id="Path_20" data-name="Path 20" class="cls-1" d="M185.8,31.1a5.053,5.053,0,0,0,1.3,2.1,2.716,2.716,0,0,0,1.7.6,2.41,2.41,0,0,0,1.5-.4,1.173,1.173,0,0,0,.5-1.1,1.072,1.072,0,0,0-.2-.6,1,1,0,0,0-.5-.4,14.679,14.679,0,0,0-1.7-.4,8.536,8.536,0,0,1-1.9-.6,2.047,2.047,0,0,1-.8-.8,2.016,2.016,0,0,1-.3-1.1,2.271,2.271,0,0,1,.6-1.6,2.792,2.792,0,0,1,2.2-.9,3.057,3.057,0,0,1,2,.7l.6-.6h.4l.2,2.9h-.6a5.012,5.012,0,0,0-1-1.8,2.2,2.2,0,0,0-1.6-.5,1.7,1.7,0,0,0-1.3.4,1.389,1.389,0,0,0-.5,1,1.222,1.222,0,0,0,.4.9,6.293,6.293,0,0,0,1.7.6c1,.2,1.6.3,1.9.4a1.879,1.879,0,0,1,1.1.8,2.01,2.01,0,0,1,.4,1.3,2.271,2.271,0,0,1-.9,1.8,3.3,3.3,0,0,1-2.2.8,4.006,4.006,0,0,1-2.3-.8l-.6.7h-.5l-.2-3.3h.6Z"/>
    <path id="Path_21" data-name="Path 21" class="cls-1" d="M196.5,25.8a3.784,3.784,0,0,1,2.8,1.2,4.316,4.316,0,0,1,1.1,3.2,5.214,5.214,0,0,1-.5,2.3,4.009,4.009,0,0,1-1.4,1.5,3.606,3.606,0,0,1-2,.6,3.424,3.424,0,0,1-2.7-1.2,4.69,4.69,0,0,1-1.1-3.1,4.962,4.962,0,0,1,1.1-3.2A3.355,3.355,0,0,1,196.5,25.8Zm0,.6a1.8,1.8,0,0,0-1.6.9,5.062,5.062,0,0,0-.6,2.8,5.456,5.456,0,0,0,.6,2.9,1.922,1.922,0,0,0,1.6.9,2.091,2.091,0,0,0,1.7-.9,4.813,4.813,0,0,0,.6-3,5.062,5.062,0,0,0-.6-2.8A1.88,1.88,0,0,0,196.5,26.4Z"/>
    <path id="Path_22" data-name="Path 22" class="cls-1" d="M207.5,31.8l.6.2a2.969,2.969,0,0,1-3,2.5,3.928,3.928,0,0,1-2.8-1.1,4.248,4.248,0,0,1-1.1-3,4.547,4.547,0,0,1,1.2-3.4,3.784,3.784,0,0,1,2.8-1.2,2.724,2.724,0,0,1,2,.7A2.057,2.057,0,0,1,208,28a1.136,1.136,0,0,1-.3.8.99.99,0,1,1-1.4-1.4.367.367,0,0,0,.1-.3c0-.2-.1-.3-.3-.5s-.5-.2-.9-.2a1.816,1.816,0,0,0-1.6.8,5.571,5.571,0,0,0-.8,3,4.148,4.148,0,0,0,.7,2.7,2.271,2.271,0,0,0,1.8.9C206.3,33.7,207,33.1,207.5,31.8Z"/>
    <path id="Path_23" data-name="Path 23" class="cls-1" d="M208.6,26l3.3-.1V33c0,.2,0,.3.1.4a.764.764,0,0,0,.5.2h.9v.7h-4.7v-.7h.9a1.072,1.072,0,0,0,.6-.2c.2-.1.2-.3.2-.5V27.7a.779.779,0,0,0-.3-.7,1.909,1.909,0,0,0-.8-.3h-.7Zm2.3-4.9a1.025,1.025,0,1,1-.7.3A.908.908,0,0,1,210.9,21.1Z"/>
    <path id="Path_24" data-name="Path 24" class="cls-1" d="M222.7,33.3l.3.5a2.1,2.1,0,0,1-1.4.7,1.689,1.689,0,0,1-1-.3,2.326,2.326,0,0,1-.7-1.1,4.89,4.89,0,0,1-1.5,1.2,3.653,3.653,0,0,1-1.5.3,3.312,3.312,0,0,1-1.9-.5,1.75,1.75,0,0,1-.7-1.4,2.308,2.308,0,0,1,1.5-2.1,12.032,12.032,0,0,1,4-1.1V28a1.606,1.606,0,0,0-.5-1.1,1.978,1.978,0,0,0-1.4-.5,2.768,2.768,0,0,0-1.3.3c-.3.2-.4.3-.4.5,0,.1.1.2.2.4a.864.864,0,0,1,.3.6.6.6,0,0,1-.3.6,1.493,1.493,0,0,1-.7.3.908.908,0,0,1-.7-.3,1.136,1.136,0,0,1-.3-.8,1.936,1.936,0,0,1,1-1.6,4.209,4.209,0,0,1,2.6-.7,3.4,3.4,0,0,1,2.2.6,1.943,1.943,0,0,1,.8,1.6v4.5a2,2,0,0,0,.2.9.55.55,0,0,0,.5.3A1.329,1.329,0,0,0,222.7,33.3Zm-2.9-3.4a7.078,7.078,0,0,0-3.2,1,1.683,1.683,0,0,0-.7,1.5,1.366,1.366,0,0,0,.4,1.1,1.222,1.222,0,0,0,.9.4,2.5,2.5,0,0,0,1.8-.8,2.792,2.792,0,0,0,.8-2Z"/>
    <path id="Path_25" data-name="Path 25" class="cls-1" d="M225.7,22.7h.6V26H229v.8h-2.7v5.3a1.8,1.8,0,0,0,.3,1.1.909.909,0,0,0,.8.4,1.217,1.217,0,0,0,1-.6,3.87,3.87,0,0,0,.5-1.8h.6a3.809,3.809,0,0,1-.7,2.4,2.342,2.342,0,0,1-1.8.8,2.111,2.111,0,0,1-1.6-.6,2.035,2.035,0,0,1-.6-1.5V26.8h-1.4v-.6a2.443,2.443,0,0,0,1.5-.8A4.551,4.551,0,0,0,225.7,22.7Z"/>
    <path id="Path_26" data-name="Path 26" class="cls-1" d="M229.9,26l3.3-.1V33c0,.2,0,.3.1.4a.764.764,0,0,0,.5.2h.9v.7H230v-.7h.9a1.072,1.072,0,0,0,.6-.2c.2-.1.2-.3.2-.5V27.7a.779.779,0,0,0-.3-.7,1.909,1.909,0,0,0-.8-.3h-.7Zm2.3-4.9a1.025,1.025,0,1,1-.7.3A1.08,1.08,0,0,1,232.2,21.1Z"/>
    <path id="Path_27" data-name="Path 27" class="cls-1" d="M239.2,25.8A3.784,3.784,0,0,1,242,27a4.316,4.316,0,0,1,1.1,3.2,5.214,5.214,0,0,1-.5,2.3,4.009,4.009,0,0,1-1.4,1.5,3.606,3.606,0,0,1-2,.6,3.424,3.424,0,0,1-2.7-1.2,4.69,4.69,0,0,1-1.1-3.1,4.962,4.962,0,0,1,1.1-3.2A3.225,3.225,0,0,1,239.2,25.8Zm0,.6a1.8,1.8,0,0,0-1.6.9,5.062,5.062,0,0,0-.6,2.8,5.456,5.456,0,0,0,.6,2.9,1.922,1.922,0,0,0,1.6.9,2.091,2.091,0,0,0,1.7-.9,4.813,4.813,0,0,0,.6-3,5.062,5.062,0,0,0-.6-2.8A1.88,1.88,0,0,0,239.2,26.4Z"/>
    <path id="Path_28" data-name="Path 28" class="cls-1" d="M243.9,26l2.7-.2a8.969,8.969,0,0,1,.2,1.8,4.023,4.023,0,0,1,1.3-1.3,3.287,3.287,0,0,1,1.7-.4,3.194,3.194,0,0,1,1.4.3,2.189,2.189,0,0,1,.9,1,3.808,3.808,0,0,1,.3,1.6v4a.845.845,0,0,0,.2.6,1.165,1.165,0,0,0,.7.2h.6v.7h-4.3v-.7h.4a1.292,1.292,0,0,0,.8-.2.845.845,0,0,0,.2-.6V29.3a2.675,2.675,0,0,0-.4-1.7,1.645,1.645,0,0,0-1.5-.8,2.289,2.289,0,0,0-1.7.8,2.817,2.817,0,0,0-.7,2.1v3a.845.845,0,0,0,.2.6,1.165,1.165,0,0,0,.7.2h.6v.7h-4.4v-.7h.6a1.445,1.445,0,0,0,.7-.2.4.4,0,0,0,.2-.4V27.6a.984.984,0,0,0-.3-.8,1.136,1.136,0,0,0-.8-.3h-.4V26Z"/>
    <path id="Path_29" data-name="Path 29" class="cls-1" d="M262.8,25.8a3.784,3.784,0,0,1,2.8,1.2,4.317,4.317,0,0,1,1.1,3.2,5.215,5.215,0,0,1-.5,2.3,4.009,4.009,0,0,1-1.4,1.5,3.606,3.606,0,0,1-2,.6,3.424,3.424,0,0,1-2.7-1.2,4.69,4.69,0,0,1-1.1-3.1,4.962,4.962,0,0,1,1.1-3.2A3.225,3.225,0,0,1,262.8,25.8Zm0,.6a1.8,1.8,0,0,0-1.6.9,5.063,5.063,0,0,0-.6,2.8,5.456,5.456,0,0,0,.6,2.9,1.922,1.922,0,0,0,1.6.9,2.091,2.091,0,0,0,1.7-.9,4.813,4.813,0,0,0,.6-3,5.063,5.063,0,0,0-.6-2.8A1.88,1.88,0,0,0,262.8,26.4Z"/>
    <path id="Path_30" data-name="Path 30" class="cls-1" d="M270.3,26h2.1v.8h-2.1v6a.845.845,0,0,0,.2.6,1.445,1.445,0,0,0,.7.2h1.1v.7h-5v-.7h.7a1.445,1.445,0,0,0,.7-.2c.2-.1.2-.3.2-.5V26.7h-1.4V26h1.4v-.6a5,5,0,0,1,.9-3.3A2.531,2.531,0,0,1,272,21a2.07,2.07,0,0,1,1.5.5,1.486,1.486,0,0,1,.6,1.3,1.136,1.136,0,0,1-.3.8.908.908,0,0,1-.7.3,1.421,1.421,0,0,1-.6-.2c-.2-.1-.2-.4-.2-.6a.908.908,0,0,1,.3-.7q.3-.15.3-.3c0-.1-.1-.2-.2-.3s-.3-.1-.6-.1a1.574,1.574,0,0,0-1.3.7,3.439,3.439,0,0,0-.5,2V26Z"/>
    <path id="Path_31" data-name="Path 31" class="cls-1" d="M168.3,48.1a5.053,5.053,0,0,0,1.3,2.1,2.716,2.716,0,0,0,1.7.6,2.41,2.41,0,0,0,1.5-.4,1.173,1.173,0,0,0,.5-1.1,1.072,1.072,0,0,0-.2-.6,1,1,0,0,0-.5-.4,14.678,14.678,0,0,0-1.7-.4,8.536,8.536,0,0,1-1.9-.6,2.047,2.047,0,0,1-.8-.8,2.016,2.016,0,0,1-.3-1.1,2.271,2.271,0,0,1,.6-1.6,2.792,2.792,0,0,1,2.2-.9,3.057,3.057,0,0,1,2,.7l.6-.6h.4l.2,2.9h-.6a5.011,5.011,0,0,0-1-1.8,2.2,2.2,0,0,0-1.6-.5,1.7,1.7,0,0,0-1.3.4,1.389,1.389,0,0,0-.5,1,1.222,1.222,0,0,0,.4.9,6.293,6.293,0,0,0,1.7.6c1,.2,1.6.3,1.9.4a1.879,1.879,0,0,1,1.1.8,2.01,2.01,0,0,1,.4,1.3,2.271,2.271,0,0,1-.9,1.8,3.3,3.3,0,0,1-2.2.8,4.006,4.006,0,0,1-2.3-.8l-.6.7h-.5l-.2-3.3h.6Z"/>
    <path id="Path_32" data-name="Path 32" class="cls-1" d="M181.5,48.8l.6.2a2.969,2.969,0,0,1-3,2.5,3.928,3.928,0,0,1-2.8-1.1,4.248,4.248,0,0,1-1.1-3,4.547,4.547,0,0,1,1.2-3.4,3.784,3.784,0,0,1,2.8-1.2,2.724,2.724,0,0,1,2,.7A2.057,2.057,0,0,1,182,45a1.136,1.136,0,0,1-.3.8.99.99,0,1,1-1.4-1.4.367.367,0,0,0,.1-.3c0-.2-.1-.3-.3-.5s-.5-.2-.9-.2a1.816,1.816,0,0,0-1.6.8,5.571,5.571,0,0,0-.8,3,4.148,4.148,0,0,0,.7,2.7,2.271,2.271,0,0,0,1.8.9C180.3,50.7,181,50.1,181.5,48.8Z"/>
    <path id="Path_33" data-name="Path 33" class="cls-1" d="M182.5,38.2l3.1-.1v6.3a4.269,4.269,0,0,1,1.4-1.3,2.934,2.934,0,0,1,1.6-.4,2.3,2.3,0,0,1,1.4.4,2.089,2.089,0,0,1,.8,1,4.844,4.844,0,0,1,.3,1.8v3.9a.588.588,0,0,0,.2.5.845.845,0,0,0,.6.2h.7v.7h-4.4v-.7h.5a1.549,1.549,0,0,0,.8-.2c.2-.1.2-.3.2-.5V46a2.544,2.544,0,0,0-.5-1.6,1.612,1.612,0,0,0-1.3-.6,2.016,2.016,0,0,0-1.1.3,3,3,0,0,0-.9,1,2.5,2.5,0,0,0-.4,1.4v3.3a.707.707,0,0,0,.8.8h.7v.7h-4.4v-.7h.5a1.165,1.165,0,0,0,.7-.2.845.845,0,0,0,.2-.6V40a.984.984,0,0,0-.3-.8,1.135,1.135,0,0,0-.8-.3h-.6v-.7Z"/>
    <path id="Path_34" data-name="Path 34" class="cls-1" d="M197.2,42.8A3.784,3.784,0,0,1,200,44a4.316,4.316,0,0,1,1.1,3.2,5.214,5.214,0,0,1-.5,2.3,4.009,4.009,0,0,1-1.4,1.5,3.606,3.606,0,0,1-2,.6,3.424,3.424,0,0,1-2.7-1.2,4.69,4.69,0,0,1-1.1-3.1,4.962,4.962,0,0,1,1.1-3.2A3.225,3.225,0,0,1,197.2,42.8Zm0,.6a1.8,1.8,0,0,0-1.6.9,5.062,5.062,0,0,0-.6,2.8,5.456,5.456,0,0,0,.6,2.9,1.922,1.922,0,0,0,1.6.9,2.091,2.091,0,0,0,1.7-.9,4.813,4.813,0,0,0,.6-3,5.062,5.062,0,0,0-.6-2.8A1.88,1.88,0,0,0,197.2,43.4Z"/>
    <path id="Path_35" data-name="Path 35" class="cls-1" d="M205.7,42.8a3.784,3.784,0,0,1,2.8,1.2,4.316,4.316,0,0,1,1.1,3.2,5.214,5.214,0,0,1-.5,2.3,4.009,4.009,0,0,1-1.4,1.5,3.606,3.606,0,0,1-2,.6,3.424,3.424,0,0,1-2.7-1.2,4.69,4.69,0,0,1-1.1-3.1,4.962,4.962,0,0,1,1.1-3.2A3.225,3.225,0,0,1,205.7,42.8Zm0,.6a1.8,1.8,0,0,0-1.6.9,5.062,5.062,0,0,0-.6,2.8,5.456,5.456,0,0,0,.6,2.9,1.922,1.922,0,0,0,1.6.9,2.091,2.091,0,0,0,1.7-.9,4.813,4.813,0,0,0,.6-3,5.062,5.062,0,0,0-.6-2.8A1.88,1.88,0,0,0,205.7,43.4Z"/>
    <path id="Path_36" data-name="Path 36" class="cls-1" d="M213.5,38.1V50c0,.2,0,.3.1.4a.764.764,0,0,0,.5.2h.9v.7h-4.7v-.7h.8a.845.845,0,0,0,.6-.2.764.764,0,0,0,.2-.5v-10a.845.845,0,0,0-.2-.6,1.135,1.135,0,0,0-.8-.3h-.7v-.7Z"/>
    <path id="Path_37" data-name="Path 37" class="cls-1" d="M226.5,48.8l.5.2a2.969,2.969,0,0,1-3,2.5,3.928,3.928,0,0,1-2.8-1.1,4.248,4.248,0,0,1-1.1-3,4.547,4.547,0,0,1,1.2-3.4,3.784,3.784,0,0,1,2.8-1.2,2.724,2.724,0,0,1,2,.7,2.057,2.057,0,0,1,.8,1.5,1.136,1.136,0,0,1-.3.8.99.99,0,1,1-1.4-1.4.367.367,0,0,0,.1-.3c0-.2-.1-.3-.3-.5s-.5-.2-.9-.2a1.816,1.816,0,0,0-1.6.8,5.571,5.571,0,0,0-.8,3,4.148,4.148,0,0,0,.7,2.7,2.271,2.271,0,0,0,1.8.9A2.72,2.72,0,0,0,226.5,48.8Z"/>
    <path id="Path_38" data-name="Path 38" class="cls-1" d="M231.6,42.8a3.784,3.784,0,0,1,2.8,1.2,4.316,4.316,0,0,1,1.1,3.2,5.214,5.214,0,0,1-.5,2.3,4.009,4.009,0,0,1-1.4,1.5,3.606,3.606,0,0,1-2,.6,3.424,3.424,0,0,1-2.7-1.2,4.69,4.69,0,0,1-1.1-3.1,4.962,4.962,0,0,1,1.1-3.2A3.225,3.225,0,0,1,231.6,42.8Zm0,.6a1.8,1.8,0,0,0-1.6.9,5.062,5.062,0,0,0-.6,2.8A5.456,5.456,0,0,0,230,50a1.922,1.922,0,0,0,1.6.9,2.091,2.091,0,0,0,1.7-.9,4.813,4.813,0,0,0,.6-3,5.062,5.062,0,0,0-.6-2.8A1.88,1.88,0,0,0,231.6,43.4Z"/>
    <path id="Path_39" data-name="Path 39" class="cls-1" d="M236.8,43l2.4-.1.3,1.8a5.954,5.954,0,0,1,1.3-1.4,2.41,2.41,0,0,1,1.5-.4,2.116,2.116,0,0,1,1.4.4,2.747,2.747,0,0,1,.9,1.5,4.423,4.423,0,0,1,1.3-1.4,3.022,3.022,0,0,1,1.6-.5,2.06,2.06,0,0,1,1.7.7,3.334,3.334,0,0,1,.7,2.3V50a.764.764,0,0,0,.2.5,1.445,1.445,0,0,0,.7.2h.4v.7h-4.1v-.7h.4a.956.956,0,0,0,.7-.2.764.764,0,0,0,.2-.5V45.9a1.955,1.955,0,0,0-.4-1.4,1.656,1.656,0,0,0-1.2-.5,1.689,1.689,0,0,0-1,.3,2.9,2.9,0,0,0-1.1,2.1v3.5a.764.764,0,0,0,.2.5.845.845,0,0,0,.6.2h.6v.7h-4.2v-.7h.5a1.445,1.445,0,0,0,.7-.2.4.4,0,0,0,.2-.4V46.2a2.5,2.5,0,0,0-.4-1.7,1.606,1.606,0,0,0-1.1-.5,1.678,1.678,0,0,0-1.4.6,3.139,3.139,0,0,0-.7,2.1V50a.588.588,0,0,0,.2.5,1.445,1.445,0,0,0,.7.2h.4v.7h-4.1v-.7h.6a.694.694,0,0,0,.7-.6V44.7a1.445,1.445,0,0,0-.2-.7c-.1-.2-.5-.2-.9-.3V43Z"/>
    <path id="Path_40" data-name="Path 40" class="cls-1" d="M252.3,43l2.4-.1.3,1.8a5.955,5.955,0,0,1,1.3-1.4,2.41,2.41,0,0,1,1.5-.4,2.116,2.116,0,0,1,1.4.4,2.747,2.747,0,0,1,.9,1.5,4.423,4.423,0,0,1,1.3-1.4,3.022,3.022,0,0,1,1.6-.5,2.06,2.06,0,0,1,1.7.7,3.334,3.334,0,0,1,.7,2.3V50a.764.764,0,0,0,.2.5,1.445,1.445,0,0,0,.7.2h.4v.7h-4.1v-.7h.4a.956.956,0,0,0,.7-.2.764.764,0,0,0,.2-.5V45.9a1.955,1.955,0,0,0-.4-1.4,1.656,1.656,0,0,0-1.2-.5,1.689,1.689,0,0,0-1,.3,2.9,2.9,0,0,0-1.1,2.1v3.5a.764.764,0,0,0,.2.5.845.845,0,0,0,.6.2h.6v.7h-4.2v-.7h.5a1.445,1.445,0,0,0,.7-.2.4.4,0,0,0,.2-.4V46.2a2.5,2.5,0,0,0-.4-1.7,1.606,1.606,0,0,0-1.1-.5,1.678,1.678,0,0,0-1.4.6,3.139,3.139,0,0,0-.7,2.1V50a.588.588,0,0,0,.2.5,1.445,1.445,0,0,0,.7.2h.4v.7h-4.1v-.7h.6a.694.694,0,0,0,.7-.6V44.7a1.445,1.445,0,0,0-.2-.7c-.1-.2-.5-.2-.9-.3V43Z"/>
    <path id="Path_41" data-name="Path 41" class="cls-1" d="M267.2,43l3.3-.1V50c0,.2,0,.3.1.4a.764.764,0,0,0,.5.2h.9v.7h-4.7v-.7h.9a1.072,1.072,0,0,0,.6-.2c.2-.1.2-.3.2-.5V44.7a.779.779,0,0,0-.3-.7,1.909,1.909,0,0,0-.8-.3h-.7Zm2.3-4.9a1.025,1.025,0,1,1-.7.3A.908.908,0,0,1,269.5,38.1Z"/>
    <path id="Path_42" data-name="Path 42" class="cls-1" d="M274.8,39.7h.6V43h2.7v.8h-2.7v5.3a1.8,1.8,0,0,0,.3,1.1.909.909,0,0,0,.8.4,1.217,1.217,0,0,0,1-.6,3.87,3.87,0,0,0,.5-1.8h.6a3.808,3.808,0,0,1-.7,2.4,2.342,2.342,0,0,1-1.8.8,2.111,2.111,0,0,1-1.6-.6,2.035,2.035,0,0,1-.6-1.5V43.8h-1.4v-.6a2.443,2.443,0,0,0,1.5-.8A6.621,6.621,0,0,0,274.8,39.7Z"/>
    <path id="Path_43" data-name="Path 43" class="cls-1" d="M281.3,39.7h.6V43h2.7v.8h-2.7v5.3a1.8,1.8,0,0,0,.3,1.1.909.909,0,0,0,.8.4,1.217,1.217,0,0,0,1-.6,3.87,3.87,0,0,0,.5-1.8h.6a3.808,3.808,0,0,1-.7,2.4,2.342,2.342,0,0,1-1.8.8,2.111,2.111,0,0,1-1.6-.6,2.035,2.035,0,0,1-.6-1.5V43.8H279v-.6a2.443,2.443,0,0,0,1.5-.8A4.551,4.551,0,0,0,281.3,39.7Z"/>
    <path id="Path_44" data-name="Path 44" class="cls-1" d="M293.4,47.2h-5.9a4.607,4.607,0,0,0,.7,2.7,2.323,2.323,0,0,0,1.9.9,3.278,3.278,0,0,0,2.8-2l.6.2a4.017,4.017,0,0,1-3.7,2.5,3.784,3.784,0,0,1-2.8-1.2,4.08,4.08,0,0,1-1.1-3.1A4.771,4.771,0,0,1,287,44a3.571,3.571,0,0,1,2.7-1.2,3.7,3.7,0,0,1,2.1.6,3.523,3.523,0,0,1,1.3,1.8A5.618,5.618,0,0,1,293.4,47.2Zm-5.9-.6h3.6a.764.764,0,0,0,.5-.2,1.165,1.165,0,0,0,.2-.7,2.271,2.271,0,0,0-.6-1.6,2.1,2.1,0,0,0-1.4-.7,2.254,2.254,0,0,0-1.6.8A3.286,3.286,0,0,0,287.5,46.6Z"/>
    <path id="Path_45" data-name="Path 45" class="cls-1" d="M302,47.2h-5.9a4.607,4.607,0,0,0,.7,2.7,2.323,2.323,0,0,0,1.9.9,3.278,3.278,0,0,0,2.8-2l.5.2a4.017,4.017,0,0,1-3.7,2.5,3.784,3.784,0,0,1-2.8-1.2,4.08,4.08,0,0,1-1.1-3.1,4.771,4.771,0,0,1,1.1-3.2,3.571,3.571,0,0,1,2.7-1.2,3.7,3.7,0,0,1,2.1.6,3.523,3.523,0,0,1,1.3,1.8A3.966,3.966,0,0,1,302,47.2Zm-5.9-.6h3.6a.764.764,0,0,0,.5-.2,1.165,1.165,0,0,0,.2-.7,2.271,2.271,0,0,0-.6-1.6,2.1,2.1,0,0,0-1.4-.7,2.254,2.254,0,0,0-1.6.8A3.286,3.286,0,0,0,296.1,46.6Z"/>
    <path id="Path_46" data-name="Path 46" class="cls-1" d="M303.8,48.1a5.053,5.053,0,0,0,1.3,2.1,2.716,2.716,0,0,0,1.7.6,2.41,2.41,0,0,0,1.5-.4,1.173,1.173,0,0,0,.5-1.1,1.072,1.072,0,0,0-.2-.6,1,1,0,0,0-.5-.4,14.678,14.678,0,0,0-1.7-.4,8.536,8.536,0,0,1-1.9-.6,2.047,2.047,0,0,1-.8-.8,2.016,2.016,0,0,1-.3-1.1,2.271,2.271,0,0,1,.6-1.6,2.792,2.792,0,0,1,2.2-.9,3.057,3.057,0,0,1,2,.7l.6-.6h.4l.2,2.9h-.6a5.011,5.011,0,0,0-1-1.8,2.2,2.2,0,0,0-1.6-.5,1.7,1.7,0,0,0-1.3.4,1.389,1.389,0,0,0-.5,1,1.222,1.222,0,0,0,.4.9,6.293,6.293,0,0,0,1.7.6c1,.2,1.6.3,1.9.4a1.879,1.879,0,0,1,1.1.8,2.01,2.01,0,0,1,.4,1.3,2.271,2.271,0,0,1-.9,1.8,3.3,3.3,0,0,1-2.2.8,4.006,4.006,0,0,1-2.3-.8l-.6.7h-.5l-.2-3.3h.6Z"/>
  </g>
</svg>
